<?xml version="1.0" standalone="no"?>
<!DOCTYPE svg PUBLIC "-//W3C//DTD SVG 20010904//EN"
 "http://www.w3.org/TR/2001/REC-SVG-20010904/DTD/svg10.dtd">
<svg version="1.0" xmlns="http://www.w3.org/2000/svg"
 width="512.000000pt" height="512.000000pt" viewBox="0 0 512.000000 512.000000"
 preserveAspectRatio="xMidYMid meet">

<g transform="translate(0.000000,512.000000) scale(0.100000,-0.100000)"
fill="#000000" stroke="none">
<path d="M1385 5108 c-149 -28 -315 -154 -388 -294 -56 -110 -67 -170 -67
-396 l0 -198 -118 0 c-143 0 -201 -15 -271 -70 -35 -28 -59 -58 -83 -107 l-33
-68 -3 -440 c-2 -242 -1 -454 3 -472 7 -39 40 -73 71 -73 12 0 33 9 47 21 l27
20 2 257 3 257 1013 3 1012 2 0 -963 0 -964 -23 -33 c-12 -19 -38 -43 -57 -54
-34 -21 -48 -21 -885 -24 -467 -2 -873 0 -902 3 -62 7 -109 37 -137 85 -20 34
-21 53 -26 597 -5 547 -6 563 -25 577 -47 36 -108 8 -120 -56 -3 -18 -5 -276
-3 -573 3 -539 3 -540 26 -590 27 -58 80 -117 137 -150 49 -29 140 -45 258
-45 l87 0 0 -427 c0 -479 3 -503 67 -627 67 -128 191 -231 343 -282 52 -18
106 -19 1130 -19 l1075 0 67 26 c151 59 252 146 321 276 72 137 67 -27 67
2253 0 2280 5 2116 -67 2253 -69 130 -170 217 -321 276 l-67 26 -1055 2 c-634
0 -1075 -3 -1105 -9z m2193 -165 c122 -50 214 -150 252 -272 20 -62 20 -100
20 -2111 0 -2011 0 -2049 -20 -2111 -27 -87 -79 -161 -151 -214 -117 -86 -28
-80 -1214 -80 -1186 0 -1097 -6 -1214 80 -72 53 -124 127 -151 214 -19 59 -20
93 -20 487 l0 424 75 0 75 0 0 -422 c0 -422 0 -423 24 -473 27 -59 72 -107
130 -138 41 -22 43 -22 657 -25 612 -3 616 -2 642 18 34 27 37 78 6 106 -20
18 -49 19 -631 24 l-610 5 -34 37 -34 38 0 414 0 415 563 3 c636 4 614 2 706
84 84 75 95 111 101 309 l5 170 305 3 c296 2 305 3 327 24 28 26 30 67 4 99
l-19 24 -311 3 -311 3 0 194 0 195 305 0 306 0 24 25 c34 33 33 77 -1 104 -26
20 -38 21 -330 21 l-304 0 0 190 0 190 289 0 c297 0 342 5 361 40 14 27 12 63
-4 86 -14 18 -32 19 -328 24 l-313 5 0 140 0 140 292 5 293 5 32 33 33 32 3
179 c3 148 1 185 -13 210 -30 58 -45 61 -358 61 l-284 0 -11 38 c-17 57 -69
129 -116 161 -89 62 -83 61 -691 61 l-555 0 0 185 0 185 34 38 34 37 149 3
c185 3 197 -2 247 -111 39 -87 102 -147 173 -168 37 -11 139 -14 458 -14 407
0 410 0 460 23 71 33 113 77 151 159 50 109 63 114 247 111 l149 -3 34 -37 34
-38 0 -2030 0 -2030 -34 -38 -34 -37 -266 -5 c-297 -6 -300 -6 -300 -76 0 -26
7 -42 24 -56 22 -18 39 -19 294 -16 257 3 273 4 312 25 58 31 103 79 130 138
l24 50 0 2045 0 2045 -24 50 c-27 59 -72 107 -130 138 -36 19 -59 22 -203 25
-134 3 -172 1 -215 -14 -71 -23 -149 -101 -172 -170 -20 -61 -51 -93 -103
-105 -50 -11 -726 -11 -776 0 -52 12 -83 44 -103 105 -23 69 -101 147 -172
170 -43 15 -81 17 -215 14 -144 -3 -167 -6 -203 -25 -58 -31 -103 -79 -130
-138 -22 -47 -24 -62 -24 -242 l0 -193 -75 0 -75 0 0 194 c0 218 11 273 71
367 32 50 105 116 160 145 84 43 80 43 1174 41 l1040 -2 53 -22z m-1075 -887
c18 -7 46 -28 62 -45 30 -32 30 -32 33 -172 l4 -139 -1017 0 -1017 0 4 128 c4
149 19 186 91 221 42 21 49 21 925 21 727 0 888 -2 915 -14z m757 -356 l0
-110 -255 0 -255 0 0 110 0 110 255 0 255 0 0 -110z"/>
<path d="M2120 4788 c-39 -42 -19 -101 41 -118 46 -14 580 -13 615 0 55 21 71
78 34 118 -21 22 -24 22 -345 22 -321 0 -324 0 -345 -22z"/>
<path d="M1640 1167 c-13 -7 -35 -28 -47 -46 -22 -32 -23 -44 -23 -198 0 -260
8 -268 267 -268 158 0 174 2 200 21 54 40 63 73 63 242 0 252 -10 262 -265
262 -116 0 -178 -4 -195 -13z m308 -249 l-3 -113 -110 0 -110 0 -3 113 -3 112
116 0 116 0 -3 -112z"/>
<path d="M2289 1163 c-53 -33 -59 -56 -59 -243 0 -250 9 -262 212 -268 182 -6
234 2 275 43 l33 33 0 181 c0 272 1 271 -262 271 -142 0 -178 -3 -199 -17z
m311 -248 l0 -115 -110 0 -110 0 0 115 0 115 110 0 110 0 0 -115z"/>
<path d="M2949 1165 c-58 -32 -64 -54 -64 -245 0 -151 2 -180 18 -203 37 -57
56 -62 242 -62 264 0 268 4 263 277 l-3 180 -37 34 -38 34 -177 0 c-134 -1
-184 -4 -204 -15z m311 -250 l0 -116 -112 3 -113 3 -3 113 -3 112 116 0 115 0
0 -115z"/>
<path d="M4334 4396 c-49 -22 -115 -86 -138 -136 -19 -41 -21 -67 -24 -283 -4
-257 0 -286 44 -306 35 -16 48 -14 78 10 l26 20 0 230 c0 247 6 281 51 313 13
9 43 16 67 16 58 0 98 -38 107 -101 3 -24 4 -660 3 -1414 l-3 -1370 -110 0
-110 0 -3 1019 -2 1020 -22 23 c-26 28 -67 30 -99 4 l-24 -19 0 -1134 0 -1133
84 -205 c46 -113 89 -211 95 -219 36 -46 131 -44 161 3 9 13 53 113 98 222
l82 199 0 1530 c0 1705 6 1559 -69 1643 -52 57 -111 82 -193 82 -38 -1 -82 -7
-99 -14z m210 -3198 c-21 -70 -108 -268 -114 -261 -8 9 -110 265 -110 276 0 4
52 7 116 7 115 0 115 0 108 -22z"/>
<path d="M1144 3189 l-94 -93 -53 52 c-44 44 -59 52 -89 52 -43 0 -68 -27 -68
-74 0 -23 18 -47 86 -116 47 -49 97 -91 111 -95 16 -4 36 1 57 14 51 32 244
236 252 266 10 40 -23 79 -70 83 -35 3 -43 -2 -132 -89z"/>
<path d="M1494 3148 c-22 -10 -44 -47 -44 -72 0 -7 9 -25 21 -40 l20 -26 405
0 c391 0 405 1 424 20 25 25 26 71 1 101 l-19 24 -394 2 c-259 1 -400 -2 -414
-9z"/>
<path d="M1151 2656 l-96 -95 -57 55 c-64 62 -100 70 -136 31 -43 -45 -31 -73
71 -175 74 -73 98 -92 121 -92 24 0 52 23 154 123 68 67 128 133 133 146 18
46 -24 101 -78 101 -9 0 -59 -42 -112 -94z"/>
<path d="M1475 2595 c-30 -29 -32 -64 -6 -96 l19 -24 399 -3 c393 -3 400 -2
426 18 35 28 37 77 4 108 -23 22 -26 22 -421 22 l-397 0 -24 -25z"/>
<path d="M1250 2203 c-8 -3 -56 -46 -107 -96 l-92 -91 -60 57 c-65 62 -85 68
-125 36 -19 -15 -26 -29 -26 -57 0 -32 10 -46 88 -124 125 -125 121 -126 290
45 86 87 132 141 132 155 0 42 -62 88 -100 75z"/>
<path d="M1475 2055 c-14 -13 -25 -36 -25 -50 0 -14 11 -37 25 -50 l24 -25
399 0 399 0 21 23 c31 33 29 80 -4 106 -26 20 -37 21 -421 21 l-394 0 -24 -25z"/>
</g>
</svg>
